<?xml version="1.0" standalone="no"?>
<!DOCTYPE svg PUBLIC "-//W3C//DTD SVG 20010904//EN"
 "http://www.w3.org/TR/2001/REC-SVG-20010904/DTD/svg10.dtd">
<svg version="1.0" xmlns="http://www.w3.org/2000/svg"
 width="119.000000pt" height="115.000000pt" viewBox="0 0 119.000000 115.000000"
 preserveAspectRatio="xMidYMid meet">
<metadata>
Created by potrace 1.10, written by Peter Selinger 2001-2011
</metadata>
<g transform="translate(0.000000,115.000000) scale(0.100000,-0.100000)"
fill="#000000" stroke="none">
<path d="M499 1128 c-191 -24 -358 -158 -436 -351 -38 -93 -44 -258 -13 -359
51 -168 172 -300 337 -366 61 -24 81 -26 198 -27 137 0 146 2 263 58 l62 30
115 -52 c124 -56 163 -63 95 -16 -23 16 -84 73 -136 128 l-94 99 -37 -32 c-81
-72 -204 -104 -333 -87 -162 21 -305 149 -351 313 -13 49 -15 66 -6 69 14 4
169 12 427 21 255 10 251 12 -70 54 -135 17 -271 34 -303 37 l-59 6 6 31 c11
54 56 134 106 189 183 200 516 177 669 -46 98 -145 100 -351 4 -489 l-27 -39
48 -47 c39 -39 49 -44 57 -32 97 152 124 231 122 360 -1 151 -56 283 -163 390
-128 128 -291 182 -481 158z m196 -33 c226 -48 391 -235 420 -475 8 -73 -15
-202 -51 -274 -31 -64 -47 -81 -69 -72 -28 10 -28 36 3 104 98 219 31 459
-161 586 -185 121 -420 96 -577 -63 -71 -72 -110 -140 -118 -206 -6 -57 13
-68 138 -84 87 -11 141 -29 94 -31 -75 -3 -202 -18 -217 -24 -26 -12 -30 -47
-14 -103 38 -127 126 -232 245 -290 75 -38 77 -38 196 -38 120 0 122 0 196 37
41 21 83 43 93 50 16 11 23 8 57 -29 49 -52 51 -64 7 -51 -28 9 -41 6 -87 -17
-172 -87 -332 -94 -485 -19 -134 65 -227 166 -281 309 -34 90 -39 229 -10 315
51 152 145 264 278 329 120 59 218 72 343 46z"/>
</g>
</svg>
